<svg version="1.0" xmlns="http://www.w3.org/2000/svg" width="2730.7" height="2730.7" viewBox="0 0 2048 2048"><path d="M1007 574c-8 1-20 7-28 12-18 12-40 36-55 62-23 38-40 86-45 130l-1 5h-5l-28 3c-29 2-43 3-66 8l-20 4-8-12a653 653 0 0 0-127-150c-29-23-36-28-50-33-10-3-31-3-39 0-19 7-33 21-41 42l-2 19c-1 15-5 40-11 68a434 434 0 0 0 2 186l-25 5a803 803 0 0 1-62 3l-18-2-24-2c-7 0-10 0-14 2l-20 3c-14 1-16 1-23 4-10 5-18 13-23 23l-4 7 1 61a519 519 0 0 0 6 88c2 6 4 8 13 18 9 9 12 11 18 14 7 4 8 4 21 4h14l-3 10c-9 27-10 48-4 63l6 9 3 3-11 11c-19 20-30 35-41 57-9 19-12 27-12 37 0 13 4 23 14 32 15 15 37 17 55 6 5-4 12-11 15-16 2-3 2-3 2 6 0 16 4 25 16 36 6 6 9 8 14 11 7 2 9 2 23 3a249 249 0 0 0 30-1l-12 18c-12 19-15 25-15 37 0 18 10 33 27 41 7 3 8 4 18 4 9 0 10-1 17-4 10-4 17-12 34-35l13-19 2 3a101 101 0 0 0 28 24c11 6 17 7 31 7 10 0 13 0 20-2l8-3 15 6c27 12 39 15 56 15 14 0 23-2 37-9l17-9 15-6c8-1 16-1 47 4 28 3 44 4 67 4 33-1 46-5 73-19 13-7 22-11 28-11 5 0 21 3 47 10 45 11 59 13 84 13 20 0 27-1 46-9 20-7 31-10 44-10 9 0 30 3 60 10a247 247 0 0 0 106 8c12-4 31-13 42-21l9-6 14 3c18 5 28 6 42 6a73 73 0 0 0 54-21l13-16c6-11 8-12 32-24 20-10 30-16 41-26 9-9 15-16 20-25l4-6c2 0 32 23 57 44 8 7 15 11 20 14 7 3 8 4 18 4 14-1 22-3 31-13 8-7 12-15 13-24 3-16-2-29-14-41l-41-34-7-6 2-2c9-6 23-17 29-24a71 71 0 0 0 21-52l1-13 2 1a363 363 0 0 0 29 20c2 2 7 6 11 7 6 3 7 3 18 3 11 1 12 0 18-3 9-4 18-12 22-21 3-6 3-7 3-19 1-13 0-14-2-19-5-11-17-21-38-36l-27-17-9-5 7-6 9-12c6-12 6-17 7-55 0-33-1-51-3-67l-2-26c-1-20-1-21-4-27-6-14-22-26-36-29-20-4-26-4-50-5l-42-3-44-3-27-1-15-12c-23-19-49-36-67-45-10-5-13-8-17-21l-12-44c-11-40-17-61-25-83-14-41-30-64-50-73-8-4-9-4-19-5-11 0-11 0-29 7l-12 6-8 4c-10 3-21 9-29 17-10 9-16 17-50 61-27 36-51 71-65 94l-8 14-8-3a304 304 0 0 0-91-16h-5l9-19c6-10 11-24 14-30 3-11 3-12 4-27 0-15 0-16-3-22l-5-12c-5-8-16-18-23-21l-7-3-1-6-3-14c-7-26-23-43-46-49h-28z" fill="#0ff"/><path d="M1010 595c-14 4-24 10-39 26a286 286 0 0 0-73 176c0 5 0 5-3 5l-31 3a523 523 0 0 0-116 17l-10-17a579 579 0 0 0-162-178c-24-12-47-5-59 18-3 7-3 8-4 21-1 17-4 36-11 71a319 319 0 0 0-4 132l8 65c0 2-1 3-11 4l-22 4-26 3a544 544 0 0 1-102-1l-14 3c-21 1-27 3-34 10-6 7-6 10-6 32 0 78 1 105 6 115 2 4 15 16 19 19 6 2 13 3 20 1l36-5h5l6-13c18-33 40-67 68-101 20-24 34-36 51-46 8-5 8-5 6-16l-2-7h6a1596 1596 0 0 1 42-5l-7-52a363 363 0 0 1 3-135 595 595 0 0 0 11-69c2 0 30 24 43 35 33 30 75 85 101 134 7 14 10 17 16 20s15 4 19 2h6c6 4 10 3 41-3 33-7 37-7 78-10l51-5c34-3 53-4 118-4 62 0 73 0 102 5 16 3 21 4 44 12 14 4 21 7 23 9 8 7 16 9 25 7 10-3 18-12 18-20a809 809 0 0 1 90-139c33-43 32-41 40-44l12-5 6-3a851 851 0 0 1 39 124c12 42 20 64 28 70l9 8c6 7 9 8 17 10 3 0 9 3 16 8l12 7-35-1c-81-2-130-1-252 7a3737 3737 0 0 1-218 10 2790 2790 0 0 0-188 5 3834 3834 0 0 0-267 18c-1 0 0 5 3 9 3 5 3 6 4 18 0 11 0 14-2 18-3 6-8 11-15 13-10 4-25 13-34 21a446 446 0 0 0-75 99c-1 2 0 2 44-3 27-3 31-3 62-3l69 1c33 1 47 1 77-1l55-4 70-4a2332 2332 0 0 1 135-6h4l-3-3c-9-10-8-26 2-34 4-4 8-6 18-8 11-1 24-1 30 1 7 2 12 7 15 13 2 5 2 6 2 17l-1 12-31 1c-29 1-31 1-30 3 3 2 2 5-1 11-7 12-31 32-50 40-9 4-13 4-18 0-6-4-10-5-16-5-7 0-13 3-17 8-5 5-6 10-6 17 1 8 4 15 11 20 6 4 18 9 26 11 21 5 53-9 84-36a174 174 0 0 0 22-22l8 6c17 14 33 18 67 20 20 0 28-1 45-6 12-4 13-5 17-9 10-10 11-22 2-32-8-10-17-11-35-5l-12 4h-16c-16-1-27-3-31-5-7-4-20-15-20-17 0-4 1-4 19-5 41-2 88-3 252-4a10119 10119 0 0 0 334-4l24-1-9 3-16 5c-12 4-19 12-19 24 0 11 2 15 24 30a370 370 0 0 1 70 67c2 3 2 3 1 6-3 6-24 21-39 27l-30 10-20 7-6-7c-7-6-16-11-24-13-7-2-26-2-34-1-11 1-19 4-29 10l-8 5-4-1-16-7c-23-9-42-12-73-10-47 2-66 8-82 24-7 7-8 7-10 7l-25-12c-36-17-54-23-79-24-24-1-41 2-56 10-6 3-22 18-28 26l-3 3-15-7c-36-16-50-19-86-19-29 0-56 1-66 4-14 4-33 14-49 27l-8 5-15-5c-35-13-53-14-93-5s-53 13-62 22l-5 4-15-7-20-10c-20-7-44-7-67 2-31 13-50 28-61 51-3 5-3 5-6 4l-9 1-26 2a625 625 0 0 0-87 8c-1-1 10-26 20-51 13-27 24-48 35-65 12-18 13-20 13-29 0-11-5-18-15-23l-6-3h-78a430 430 0 0 1 28-62 550 550 0 0 0-56 8 253 253 0 0 0-25 67c-2 15 0 25 8 32 5 5 10 7 17 7l6 1-9 6a213 213 0 0 0-64 77c-8 16-10 23-10 29 2 19 23 28 38 17 4-4 6-6 14-23 8-18 16-28 32-44 12-13 23-21 34-27l-2 5c-27 60-30 70-30 91 0 16 1 20 8 27 10 10 20 11 69 5l32-3-3 5c-12 12-47 63-49 70-3 10 1 21 10 27 4 2 6 3 12 3 7 0 8 0 13-3s7-6 22-28c18-26 28-39 35-45 4-5 4-6 6 8 5 34 41 55 69 41l6-3 5 2 17 6c26 11 39 15 51 15 11 0 19-2 29-8 17-9 27-13 33-15 10-2 34-1 62 3 21 3 24 3 50 3 24 0 29 0 37-2 12-2 21-6 37-15 29-15 34-15 91-2 40 10 58 13 77 13 17 0 22-1 41-9l22-7c9-2 11-3 26-3 19 1 24 1 64 10a245 245 0 0 0 97 8c11-3 27-11 35-17 14-11 15-11 19-11l18 3c21 6 29 7 40 7 12 0 21-2 29-6s14-10 22-23 11-15 35-28l27-15c10-6 21-16 26-24l11-22 8-2c7 0 7 0 15 4 10 5 30 20 53 39 22 18 25 20 34 20 14 0 23-9 23-23 1-10-2-13-22-30a602 602 0 0 0-58-47c18-8 41-22 54-35 14-14 20-34 15-52-3-11-10-21-28-42l-6-7a498 498 0 0 1 50 20l49 32c11 10 23 10 33 2 6-5 8-10 8-18 0-13-6-19-36-39a268 268 0 0 0-98-46l1-1c1-2 1-2-10-4-15-3-25-8-30-15l-3-3h-13l-14 1 12-4 22-9c0-2-26-46-34-56-10-13-21-25-34-38l-26-23c-25-23-42-37-62-50l-7-5h5l77 3-31-26c-19-14-38-26-54-34-9-5-12-7-14-10l-5-7c-2-3-9-24-17-55-13-48-21-77-30-99-17-44-36-59-59-49l-8 3-8 4-14 6c-14 5-22 12-39 34-56 72-75 100-100 143l-8 14-18-6c-27-9-40-12-72-16a497 497 0 0 0-59-3l8-14c8-14 22-41 26-53 7-17 9-29 7-40-4-16-16-26-33-28h-5v-10c0-25-11-46-27-54-7-3-19-4-27-2zm4 77-5 20c-5 16-4 26 3 33 8 8 17 10 29 5 1 0-3 9-11 23-7 11-11 18-18 25-5 6-7 10-8 15l-1 3h-16l-29 1-12 1v-7c4-35 18-76 36-106 9-15 13-20 24-31l9-10 1 8-2 20zm137 263c6 2 12 7 15 13 2 5 8 30 10 49 3 17 1 44-3 53-5 13-19 19-32 15-7-2-15-10-20-20-5-12-7-19-8-38a107 107 0 0 1 3-46c1-7 5-16 9-20 6-7 17-10 26-6zm-337 17c9 4 12 10 18 35 12 52 11 74-3 86-5 4-9 6-16 6-8 0-14-3-21-10-12-11-14-16-18-42-3-21-3-26 0-33l3-15c1-12 4-19 9-24 6-4 9-6 17-6 4 0 7 1 11 3zm414 326c13 3 25 7 49 19 28 14 38 17 48 17 13 0 17-2 31-16 9-9 12-11 15-12 8-2 22-4 41-5 28-2 38 0 63 11 26 11 37 10 60-3 8-5 8-5 17-6 12 0 13 1 18 10 7 13 4 23-10 34l-24 15-28 15c-10 6-20 16-25 25-7 12-7 12-15 12-4 0-13-1-25-4-40-10-51-8-73 9-16 13-23 16-40 16-12 0-20-1-58-10a276 276 0 0 0-106-8c-12 3-24 6-39 12-10 4-11 4-21 4-14 0-33-3-69-12-37-9-43-10-62-10-21 0-28 2-56 16a86 86 0 0 1-53 13c-16 0-31-1-56-5-18-3-49-4-60-2-12 2-24 7-41 15l-18 8c-4 0-15-4-31-11-24-10-30-11-43-11-11 0-12 0-18 3s-7 3-8 1c-2-2-2-12-1-19 2-5 9-21 16-33l2-10c0-11 9-20 28-29 12-6 20-8 29-8 8 0 13 2 33 13 20 10 26 12 35 12s16-3 25-12 10-9 44-17c35-8 44-8 71 2 18 7 31 10 39 8 9-1 17-6 26-13 13-10 17-13 26-17l9-4 28-2c42-2 57 0 80 10l22 9c12 6 24 8 31 7 13-1 23-8 33-19 14-18 18-20 41-20l20 2z"/><path d="M1354 746c-8 3-14 9-17 17a165 165 0 0 0-7 37l-6 3c-10 5-14 13-15 29-1 12 0 17 6 24 7 6 12 8 20 7h12c7 2 15-1 21-5 3-4 4-4 9-4l9 2c4 1 13 1 18-1 12-5 17-19 11-32-3-7-10-15-16-19-5-3-5-3-5-9-3-20-9-37-16-43s-16-8-24-6zm-756 26c-6 2-14 10-17 17-2 7-2 26 0 40l2 10-2 3c-4 5-5 11-5 21 0 9 0 12-2 15-2 5-3 13-1 18s13 17 19 21c5 3 12 4 19 2l10-7 8-6c2 0 7-3 10-6 5-4 7-10 8-17 0-5 0-7 2-7 3-2 8-8 10-12 4-8 3-19-4-26l-9-22c-12-30-16-37-26-42-7-4-15-5-22-2zm1007 130 25 23a344 344 0 0 1 95 133c4 14 2 23-5 33l-4 6h10c17 0 43-2 48-4 6-1 13-8 15-13a279 279 0 0 0 1-105l-1-23c0-20-1-23-3-27-4-10-14-16-29-19l-18-2c-12-2-22-2-30-1h-15c-22-4-56-7-80-7h-15l6 6zm-163 190-7 6c-9 11-8 25 4 36 12 10 19 13 28 11 16-3 24-20 16-34-3-6-14-16-20-19-6-2-15-3-21 0zm-114 3c-9 5-14 12-14 22 0 7 3 14 8 18 5 5 16 12 20 13 9 3 20-2 26-10 2-4 3-6 3-12 0-7 0-8-3-12-3-6-13-15-20-18s-14-4-20-1zm-624 39c-11 3-17 12-17 23 0 9 3 14 14 22 9 7 15 10 21 10 13 0 23-11 23-23 0-10-3-15-12-23-12-9-21-12-29-9zm-92 8c-15 5-22 20-15 34 3 6 17 17 24 20 20 6 38-14 29-33-2-6-13-15-21-19-4-2-13-3-17-2z"/></svg>